<svg width="18" height="19" viewBox="0 0 18 19" fill="none" xmlns="http://www.w3.org/2000/svg">
<path d="M16.485 9.05759C16.23 4.70759 12.2775 1.35509 7.72497 2.10509C4.58997 2.62259 2.07748 5.16508 1.58998 8.30008C1.30498 10.1151 1.67999 11.8326 2.49749 13.2501L1.82998 15.7326C1.67998 16.2951 2.19747 16.8051 2.75247 16.6476L5.19747 15.9726C6.30747 16.6251 7.60497 17.0001 8.99247 17.0001C13.2225 17.0001 16.7325 13.2726 16.485 9.05759ZM12.66 12.2901C12.5925 12.4251 12.51 12.5526 12.405 12.6726C12.2175 12.8751 12.015 13.0251 11.79 13.1151C11.565 13.2126 11.3175 13.2576 11.055 13.2576C10.6725 13.2576 10.26 13.1676 9.83247 12.9801C9.39747 12.7926 8.96999 12.5451 8.54249 12.2376C8.10749 11.9226 7.70248 11.5701 7.31248 11.1876C6.92248 10.7976 6.57746 10.3851 6.26246 9.95757C5.95496 9.53007 5.70748 9.10258 5.52748 8.67508C5.34748 8.24758 5.25749 7.83509 5.25749 7.44509C5.25749 7.19009 5.30248 6.94259 5.39248 6.71759C5.48248 6.48509 5.62499 6.27509 5.82749 6.08759C6.06749 5.84759 6.32998 5.73509 6.60748 5.73509C6.71248 5.73509 6.81746 5.75759 6.91496 5.80259C7.01246 5.84759 7.10248 5.91509 7.16998 6.01259L8.03996 7.24258C8.10746 7.34008 8.15997 7.42258 8.18997 7.50508C8.22747 7.58758 8.24247 7.66258 8.24247 7.73758C8.24247 7.82758 8.21248 7.91759 8.15998 8.00759C8.10748 8.09759 8.03996 8.18758 7.94996 8.27758L7.66496 8.57757C7.61996 8.62257 7.60499 8.66758 7.60499 8.72758C7.60499 8.75758 7.61246 8.78758 7.61996 8.81758C7.63496 8.84758 7.64249 8.87008 7.64999 8.89258C7.71749 9.02008 7.83747 9.17757 8.00247 9.37257C8.17497 9.56757 8.355 9.77008 8.55 9.96508C8.7525 10.1676 8.94749 10.3476 9.14999 10.5201C9.34499 10.6851 9.50996 10.7976 9.63746 10.8651C9.65996 10.8726 9.68248 10.8876 9.70498 10.8951C9.73498 10.9101 9.76498 10.9101 9.80248 10.9101C9.86998 10.9101 9.915 10.8876 9.96 10.8426L10.245 10.5576C10.3425 10.4601 10.4325 10.3926 10.515 10.3476C10.605 10.2951 10.6875 10.2651 10.785 10.2651C10.86 10.2651 10.935 10.2801 11.0175 10.3176C11.1 10.3551 11.19 10.4001 11.28 10.4676L12.525 11.3526C12.6225 11.4201 12.69 11.5026 12.735 11.5926C12.7725 11.6901 12.795 11.7801 12.795 11.8851C12.75 12.0126 12.72 12.1551 12.66 12.2901Z" fill="#070808"/>
</svg>
