<svg width="18" height="19" viewBox="0 0 18 19" fill="none" xmlns="http://www.w3.org/2000/svg">
<path d="M16.5 6.15137V13.2501C16.5 13.824 16.2808 14.3763 15.887 14.7938C15.4933 15.2114 14.9549 15.4627 14.382 15.4964L14.25 15.5001H3.75C3.17609 15.5001 2.62386 15.2809 2.2063 14.8872C1.78874 14.4934 1.53742 13.955 1.50375 13.3821L1.5 13.2501V6.15137L8.58375 10.8741L8.67075 10.9236C8.77328 10.9737 8.88589 10.9998 9 10.9998C9.11411 10.9998 9.22672 10.9737 9.32925 10.9236L9.41625 10.8741L16.5 6.15137Z" fill="#070808"/>
<path d="M14.25 3.5C15.06 3.5 15.7702 3.9275 16.1662 4.57025L8.99999 9.34775L1.83374 4.57025C2.02179 4.26483 2.28015 4.0088 2.58727 3.82354C2.89439 3.63827 3.24136 3.52914 3.59924 3.50525L3.74999 3.5H14.25Z" fill="#070808"/>
</svg>
