<svg width="18" height="19" viewBox="0 0 18 19" fill="none" xmlns="http://www.w3.org/2000/svg">
<path d="M14.9625 16.25C13.4 16.25 11.8562 15.9095 10.3312 15.2285C8.80625 14.5475 7.41875 13.5817 6.16875 12.3312C4.91875 11.0807 3.95325 9.69325 3.27225 8.16875C2.59125 6.64425 2.2505 5.1005 2.25 3.5375C2.25 3.3125 2.325 3.125 2.475 2.975C2.625 2.825 2.8125 2.75 3.0375 2.75H6.075C6.25 2.75 6.40625 2.8095 6.54375 2.9285C6.68125 3.0475 6.7625 3.188 6.7875 3.35L7.275 5.975C7.3 6.175 7.29375 6.34375 7.25625 6.48125C7.21875 6.61875 7.15 6.7375 7.05 6.8375L5.23125 8.675C5.48125 9.1375 5.778 9.58425 6.1215 10.0153C6.465 10.4463 6.84325 10.862 7.25625 11.2625C7.64375 11.65 8.05 12.0095 8.475 12.341C8.9 12.6725 9.35 12.9755 9.825 13.25L11.5875 11.4875C11.7 11.375 11.847 11.2907 12.0285 11.2347C12.21 11.1788 12.388 11.163 12.5625 11.1875L15.15 11.7125C15.325 11.7625 15.4688 11.8532 15.5812 11.9847C15.6937 12.1163 15.75 12.263 15.75 12.425V15.4625C15.75 15.6875 15.675 15.875 15.525 16.025C15.375 16.175 15.1875 16.25 14.9625 16.25Z" fill="#070808"/>
</svg>
