<svg width="80" height="80" viewBox="0 0 80 80" fill="none" xmlns="http://www.w3.org/2000/svg">
<rect width="80" height="80" rx="40" fill="#1E293B"/>
<path d="M49.8102 28.255L41.5602 25.165C40.7052 24.85 39.3102 24.85 38.4552 25.165L30.2052 28.255C28.6152 28.855 27.3252 30.715 27.3252 32.41V44.56C27.3252 45.775 28.1202 47.38 29.0952 48.1L37.3452 54.265C38.8002 55.36 41.1852 55.36 42.6402 54.265L50.8902 48.1C51.8652 47.365 52.6602 45.775 52.6602 44.56V32.41C52.6752 30.715 51.3852 28.855 49.8102 28.255ZM41.1252 41.305V45.25C41.1252 45.865 40.6152 46.375 40.0002 46.375C39.3852 46.375 38.8752 45.865 38.8752 45.25V41.305C37.3602 40.825 36.2502 39.415 36.2502 37.75C36.2502 35.68 37.9302 34 40.0002 34C42.0702 34 43.7502 35.68 43.7502 37.75C43.7502 39.43 42.6402 40.825 41.1252 41.305Z" fill="#FAFCFF"/>
</svg>
