<svg width="80" height="80" viewBox="0 0 80 80" fill="none" xmlns="http://www.w3.org/2000/svg">
<rect width="80" height="80" rx="40" fill="#1E293B"/>
<path d="M26.155 37C25.51 37 25 36.49 25 35.845V32.38C25 28.315 28.315 25 32.38 25H35.845C36.49 25 37 25.51 37 26.155C37 26.8 36.49 27.31 35.845 27.31H32.38C29.575 27.31 27.31 29.59 27.31 32.38V35.845C27.31 36.49 26.785 37 26.155 37Z" fill="#FAFCFF"/>
<path d="M53.845 37C53.215 37 52.69 36.49 52.69 35.845V32.38C52.69 29.575 50.41 27.31 47.62 27.31H44.155C43.51 27.31 43 26.785 43 26.155C43 25.525 43.51 25 44.155 25H47.62C51.685 25 55 28.315 55 32.38V35.845C55 36.49 54.49 37 53.845 37Z" fill="#FAFCFF"/>
<path d="M47.6199 55H45.5349C44.9049 55 44.3799 54.49 44.3799 53.845C44.3799 53.215 44.8899 52.69 45.5349 52.69H47.6199C50.4249 52.69 52.6899 50.41 52.6899 47.62V45.55C52.6899 44.92 53.1999 44.395 53.8449 44.395C54.4749 44.395 54.9999 44.905 54.9999 45.55V47.62C54.9999 51.685 51.6849 55 47.6199 55Z" fill="#FAFCFF"/>
<path d="M35.845 55H32.38C28.315 55 25 51.685 25 47.62V44.155C25 43.51 25.51 43 26.155 43C26.8 43 27.31 43.51 27.31 44.155V47.62C27.31 50.425 29.59 52.69 32.38 52.69H35.845C36.475 52.69 37 53.2 37 53.845C37 54.49 36.49 55 35.845 55Z" fill="#FAFCFF"/>
<path d="M49.69 38.845H47.65H32.35H30.31C29.665 38.845 29.155 39.37 29.155 40C29.155 40.63 29.665 41.155 30.31 41.155H32.35H47.65H49.69C50.335 41.155 50.845 40.63 50.845 40C50.845 39.37 50.335 38.845 49.69 38.845Z" fill="#FAFCFF"/>
<path d="M32.3501 42.91V43.405C32.3501 45.895 34.3601 47.905 36.8501 47.905H43.1501C45.6401 47.905 47.6501 45.895 47.6501 43.405V42.91C47.6501 42.73 47.5151 42.595 47.3351 42.595H32.6651C32.4851 42.595 32.3501 42.73 32.3501 42.91Z" fill="#FAFCFF"/>
<path d="M32.3501 37.09V36.595C32.3501 34.105 34.3601 32.095 36.8501 32.095H43.1501C45.6401 32.095 47.6501 34.105 47.6501 36.595V37.09C47.6501 37.27 47.5151 37.405 47.3351 37.405H32.6651C32.4851 37.405 32.3501 37.27 32.3501 37.09Z" fill="#FAFCFF"/>
</svg>
