<svg width="80" height="80" viewBox="0 0 80 80" fill="none" xmlns="http://www.w3.org/2000/svg">
<rect width="80" height="80" rx="40" fill="#1E293B"/>
<path d="M48.2951 33.655C48.1901 33.64 48.0851 33.64 47.9801 33.655C45.6551 33.58 43.8101 31.675 43.8101 29.335C43.8101 26.95 45.7451 25 48.1451 25C50.5301 25 52.4801 26.935 52.4801 29.335C52.4651 31.675 50.6201 33.58 48.2951 33.655Z" fill="#FAFCFF"/>
<path d="M53.1849 44.05C51.5049 45.175 49.1499 45.595 46.9749 45.31C47.5449 44.08 47.8449 42.715 47.8599 41.275C47.8599 39.775 47.5299 38.35 46.8999 37.105C49.1199 36.805 51.4749 37.225 53.1699 38.35C55.5399 39.91 55.5399 42.475 53.1849 44.05Z" fill="#FAFCFF"/>
<path d="M31.6602 33.655C31.7652 33.64 31.8702 33.64 31.9752 33.655C34.3002 33.58 36.1452 31.675 36.1452 29.335C36.1452 26.935 34.2102 25 31.8102 25C29.4252 25 27.4902 26.935 27.4902 29.335C27.4902 31.675 29.3352 33.58 31.6602 33.655Z" fill="#FAFCFF"/>
<path d="M31.8252 41.275C31.8252 42.73 32.1402 44.11 32.7102 45.355C30.5952 45.58 28.3902 45.13 26.7702 44.065C24.4002 42.49 24.4002 39.925 26.7702 38.35C28.3752 37.27 30.6402 36.835 32.7702 37.075C32.1552 38.335 31.8252 39.76 31.8252 41.275Z" fill="#FAFCFF"/>
<path d="M40.1802 45.805C40.0602 45.79 39.9252 45.79 39.7902 45.805C37.0302 45.715 34.8252 43.45 34.8252 40.66C34.8402 37.81 37.1352 35.5 40.0002 35.5C42.8502 35.5 45.1602 37.81 45.1602 40.66C45.1452 43.45 42.9552 45.715 40.1802 45.805Z" fill="#FAFCFF"/>
<path d="M35.3052 48.91C33.0402 50.425 33.0402 52.915 35.3052 54.415C37.8852 56.14 42.1152 56.14 44.6952 54.415C46.9602 52.9 46.9602 50.41 44.6952 48.91C42.1302 47.185 37.9002 47.185 35.3052 48.91Z" fill="#FAFCFF"/>
</svg>
