<svg width="80" height="80" viewBox="0 0 80 80" fill="none" xmlns="http://www.w3.org/2000/svg">
<rect x="0.5" y="0.5" width="79" height="79" rx="7.5" fill="#F0F6FF"/>
<rect x="0.5" y="0.5" width="79" height="79" rx="7.5" stroke="#8EB9FB"/>
<path d="M59.611 36.083H58V36H40V44H51.303C49.654 48.657 45.223 52 40 52C33.373 52 28 46.627 28 40C28 33.373 33.373 28 40 28C43.059 28 45.842 29.154 47.961 31.039L53.618 25.382C50.046 22.053 45.268 20 40 20C28.955 20 20 28.955 20 40C20 51.045 28.955 60 40 60C51.045 60 60 51.045 60 40C60 38.659 59.862 37.35 59.611 36.083Z" fill="#FFC107"/>
<path d="M22.306 30.691L28.877 35.51C30.655 31.108 34.961 28 40 28C43.059 28 45.842 29.154 47.961 31.039L53.618 25.382C50.046 22.053 45.268 20 40 20C32.318 20 25.656 24.337 22.306 30.691Z" fill="#FF3D00"/>
<path d="M39.9999 60C45.1659 60 49.8599 58.023 53.4089 54.808L47.2189 49.57C45.1435 51.1484 42.6074 52.0021 39.9999 52C34.7979 52 30.3809 48.683 28.7169 44.054L22.1949 49.079C25.5049 55.556 32.2269 60 39.9999 60Z" fill="#4CAF50"/>
<path d="M59.611 36.083H58V36H40V44H51.303C50.5142 46.2164 49.0934 48.1532 47.216 49.571L47.219 49.569L53.409 54.807C52.971 55.205 60 50 60 40C60 38.659 59.862 37.35 59.611 36.083Z" fill="#1976D2"/>
</svg>
