<svg width="101" height="100" viewBox="0 0 101 100" fill="none" xmlns="http://www.w3.org/2000/svg">
<path d="M39.8491 80.1319L39.8436 80.1247C39.4027 79.5541 38.7505 79.0731 38.0752 78.7354C37.4012 78.3984 36.6289 78.1667 35.9168 78.1667H29.6668C18.5781 78.1667 9.5835 69.2079 9.5835 58.1667V54V29.0833C9.5835 18.0421 18.5781 9.08333 29.6668 9.08333H71.3335C82.4222 9.08333 91.4168 18.0421 91.4168 29.0833V58.1667C91.4168 69.2079 82.4222 78.1667 71.3335 78.1667H65.0835C63.5539 78.1667 62.0844 78.9041 61.153 80.1295L61.1512 80.1319L54.9012 88.4236L54.9002 88.425C53.646 90.0972 52.0439 90.875 50.5002 90.875C48.9564 90.875 47.3543 90.0972 46.1002 88.425L46.0991 88.4236L39.8491 80.1319ZM29.6668 58.0417H54.6668C56.7894 58.0417 58.5418 56.2892 58.5418 54.1667C58.5418 52.0441 56.7894 50.2917 54.6668 50.2917H29.6668C27.5443 50.2917 25.7918 52.0441 25.7918 54.1667C25.7918 56.2892 27.5443 58.0417 29.6668 58.0417ZM29.6668 37.2083H71.3335C73.456 37.2083 75.2085 35.4559 75.2085 33.3333C75.2085 31.2108 73.456 29.4583 71.3335 29.4583H29.6668C27.5443 29.4583 25.7918 31.2108 25.7918 33.3333C25.7918 35.4559 27.5443 37.2083 29.6668 37.2083Z" fill="#2C5390" stroke="#2C5390" stroke-width="1.5"/>
</svg>
