<svg width="239" height="64" viewBox="0 0 239 64" fill="none" xmlns="http://www.w3.org/2000/svg">
<path opacity="0.01" fill-rule="evenodd" clip-rule="evenodd" d="M145 0C146.333 0.667 146.333 0.667 145 0Z" fill="#070808"/>
<path opacity="0.01" fill-rule="evenodd" clip-rule="evenodd" d="M202 0C203.333 0.667 203.333 0.667 202 0Z" fill="#070808"/>
<path opacity="0.01" fill-rule="evenodd" clip-rule="evenodd" d="M31 2C32.333 2.667 32.333 2.667 31 2Z" fill="#070808"/>
<path opacity="0.7" fill-rule="evenodd" clip-rule="evenodd" d="M110 13C106.307 11.64 102.641 10.306 99 9C94.487 7.903 89.821 7.903 85 9C87.856 7.423 91.022 6.423 94.5 6C100.61 6.525 105.777 8.858 110 13Z" fill="#145E42"/>
<path opacity="0.142" fill-rule="evenodd" clip-rule="evenodd" d="M238.158 56.3639C237.825 56.3639 237.491 56.3639 237.158 56.3639C236.491 56.3639 236.158 56.6969 236.158 57.3639C232.078 58.3759 231.411 57.2099 234.158 53.8639C238.085 51.4239 239.418 52.2579 238.158 56.3639Z" fill="#070808"/>
<path opacity="0.999" fill-rule="evenodd" clip-rule="evenodd" d="M167 20C172.622 16.745 177.456 17.745 181.5 23C181.99 24.293 182.157 25.627 182 27C182 32.333 182 37.667 182 43C179.667 43 177.333 43 175 43C175.339 37.57 174.839 32.236 173.5 27C170.563 24.194 168.063 24.527 166 28C165.013 32.805 164.679 37.805 165 43C162.667 43 160.333 43 158 43C158 32.333 158 21.667 158 11C160.333 11 162.667 11 165 11C164.68 14.398 165.013 17.732 166 21C166.607 20.876 166.94 20.543 167 20Z" fill="#070808"/>
<path fill-rule="evenodd" clip-rule="evenodd" d="M137 11.0001C145.55 10.9011 150.883 14.9011 153 23.0001C149.982 23.1651 146.982 22.9981 144 22.5001C140.313 18.1151 136.48 17.9491 132.5 22.0001C128.509 31.8951 131.675 36.3951 142 35.5001C144.93 32.4491 148.597 31.2821 153 32.0001C152.39 38.1151 149.056 41.9491 143 43.5001C130.729 45.3891 123.729 40.2221 122 28.0001C122.507 18.1691 127.507 12.5031 137 11.0001Z" fill="#070808"/>
<path opacity="0.388" fill-rule="evenodd" clip-rule="evenodd" d="M219 13C221.448 12.027 224.115 11.694 227 12C227 14 227 16 227 18C228.667 18 230.333 18 232 18C232.302 20.559 231.968 22.893 231 25C231 23 231 21 231 19C229.333 19 227.667 19 226 19C226 17 226 15 226 13C223.667 13 221.333 13 219 13Z" fill="#797979"/>
<path opacity="0.557" fill-rule="evenodd" clip-rule="evenodd" d="M1 12C1 22.333 1 32.667 1 43C3.333 43 5.667 43 8 43C5.552 43.973 2.885 44.306 0 44C0 33.667 0 23.333 0 13C0 12.333 0.333 12 1 12Z" fill="#8E8E8E"/>
<path fill-rule="evenodd" clip-rule="evenodd" d="M1 12C1.333 12 1.667 12 2 12C4.747 11.687 7.414 12.02 10 13C12.55 19.493 15.383 25.826 18.5 32C21.305 25.414 23.805 18.747 26 12C29.333 12 32.667 12 36 12C36 22.667 36 33.333 36 44C33.333 44 30.667 44 28 44C28.166 38.656 27.999 33.323 27.5 28C25.359 33.256 23.526 38.59 22 44C19.381 44.268 16.881 43.935 14.5 43C12.696 37.92 10.696 32.92 8.5 28C8.001 32.989 7.834 37.989 8 43C5.667 43 3.333 43 1 43C1 32.667 1 22.333 1 12Z" fill="#070808"/>
<path opacity="0.998" fill-rule="evenodd" clip-rule="evenodd" d="M219 13C221.333 13 223.667 13 226 13C226 15 226 17 226 19C227.667 19 229.333 19 231 19C231 21 231 23 231 25C229.667 25 228.333 25 227 25C226.835 28.682 227.001 32.348 227.5 36C228.511 36.837 229.678 37.17 231 37C231 39 231 41 231 43C229 43 227 43 225 43C222.597 43.107 220.764 42.107 219.5 40C219.001 35.011 218.834 30.011 219 25C215.027 24.425 214.027 22.258 216 18.5C216.948 18.017 217.948 17.851 219 18C219 16.333 219 14.667 219 13Z" fill="#070808"/>
<path opacity="0.17" fill-rule="evenodd" clip-rule="evenodd" d="M167 20C166.94 20.543 166.607 20.876 166 21C165.013 17.732 164.68 14.398 165 11C162.667 11 160.333 11 158 11C158 21.667 158 32.333 158 43C160.333 43 162.667 43 165 43C164.679 37.805 165.013 32.805 166 28C166 33.333 166 38.667 166 44C163 44 160 44 157 44C157 32.667 157 21.333 157 10C160 10 163 10 166 10C165.687 13.542 166.021 16.875 167 20Z" fill="#4A4A4A"/>
<path fill-rule="evenodd" clip-rule="evenodd" d="M99 10C97.489 15.712 95.822 21.379 94 27C87.298 26.767 80.965 25.1 75 22C77.44 20.391 78.607 18.057 78.5 15C84.404 9.85004 91.237 8.18304 99 10Z" fill="#0CCF8C"/>
<path opacity="0.323" fill-rule="evenodd" clip-rule="evenodd" d="M48 19C45.115 18.694 42.448 19.027 40 20C39.457 19.94 39.124 19.607 39 19C42.145 17.697 45.145 17.697 48 19Z" fill="#626262"/>
<path opacity="0.334" fill-rule="evenodd" clip-rule="evenodd" d="M55 19C57.855 17.697 60.855 17.697 64 19C63.876 19.607 63.543 19.94 63 20C60.552 19.027 57.885 18.694 55 19Z" fill="#5E5E5E"/>
<path fill-rule="evenodd" clip-rule="evenodd" d="M48 19C49.31 20.648 50.643 22.314 52 24C53.263 22.471 54.263 20.805 55 19C57.885 18.694 60.552 19.027 63 20C60.919 23.93 58.586 27.764 56 31.5C58.974 34.628 61.307 38.128 63 42C60.552 42.973 57.885 43.306 55 43C53.843 41.362 52.676 39.696 51.5 38C49.831 39.346 48.664 41.013 48 43C45.115 43.306 42.448 42.973 40 42C42.081 38.07 44.414 34.236 47 30.5C44.026 27.372 41.693 23.872 40 20C42.448 19.027 45.115 18.694 48 19Z" fill="#070808"/>
<path opacity="0.999" fill-rule="evenodd" clip-rule="evenodd" d="M99 9C102.641 10.306 106.307 11.64 110 13C113.228 15.569 115.228 18.902 116 23C116 27.333 116 31.667 116 36C115.331 39.349 113.664 42.016 111 44C112.076 40.766 112.743 37.432 113 34C110.018 33.537 107.018 33.204 104 33C100.881 31.63 97.548 30.63 94 30C94.237 31.291 93.904 32.291 93 33C93.017 30.935 93.35 28.935 94 27C95.822 21.379 97.489 15.712 99 10C99 9.667 99 9.333 99 9Z" fill="#0EA470"/>
<path opacity="0.999" fill-rule="evenodd" clip-rule="evenodd" d="M202 19C203.693 22.462 204.693 22.462 205 19C207.333 19 209.667 19 212 19C212 27 212 35 212 43C209.667 43 207.333 43 205 43C205.155 39.647 204.488 39.314 203 42C192.78 46.214 187.114 42.714 186 31.5C186.284 20.706 191.617 16.539 202 19ZM198 25C203.324 25.83 205.158 28.83 203.5 34C198.924 38.145 195.757 37.145 194 31C194.366 28.244 195.7 26.244 198 25Z" fill="#070808"/>
<path fill-rule="evenodd" clip-rule="evenodd" d="M73 25C79.364 26.174 85.697 27.508 92 29C92.536 32.165 91.703 34.831 89.5 37C89.261 40.887 88.428 44.554 87 48C83.462 48.285 81.629 46.618 81.5 43C80.167 44.333 78.833 44.333 77.5 43C75.922 39.843 74.922 36.509 74.5 33C74.117 32.444 73.617 32.111 73 32C73 29.667 73 27.333 73 25Z" fill="#07E39A"/>
<path fill-rule="evenodd" clip-rule="evenodd" d="M74 20C74.134 21.792 73.801 23.458 73 25C73 27.333 73 29.667 73 32C73.493 34.306 73.826 36.639 74 39C72.423 36.144 71.423 32.978 71 29.5C71.423 26.022 72.423 22.856 74 20Z" fill="#177D54"/>
<path opacity="0.676" fill-rule="evenodd" clip-rule="evenodd" d="M116 23C118.373 27.376 118.373 31.709 116 36C116 31.667 116 27.333 116 23Z" fill="#1D4E3D"/>
<path opacity="0.213" fill-rule="evenodd" clip-rule="evenodd" d="M203 42C204.488 39.314 205.155 39.647 205 43C207.333 43 209.667 43 212 43C212 35 212 27 212 19C209.667 19 207.333 19 205 19C204.693 22.462 203.693 22.462 202 19C202.617 19.111 203.117 19.444 203.5 20C206.304 18.156 209.47 17.489 213 18C213 26.667 213 35.333 213 44C209.321 44.44 205.988 43.773 203 42Z" fill="#4D4D4D"/>
<path opacity="0.196" fill-rule="evenodd" clip-rule="evenodd" d="M182 27C182.989 32.475 183.322 38.142 183 44C180.115 44.306 177.448 43.973 175 43C177.333 43 179.667 43 182 43C182 37.667 182 32.333 182 27Z" fill="#494949"/>
<path fill-rule="evenodd" clip-rule="evenodd" d="M104 33C107.018 33.204 110.018 33.537 113 34C112.743 37.432 112.076 40.766 111 44C111 45.333 110.333 46 109 46C106.474 46.419 104.141 46.586 102 46.5C102.837 47.511 103.17 48.678 103 50C100.58 50.208 98.247 49.874 96 49C95.667 49.333 95.333 49.667 95 50C95.876 50.751 96.876 51.251 98 51.5C95.69 51.997 93.357 52.163 91 52C92.204 45.312 93.538 38.646 95 32C97.982 32.463 100.982 32.796 104 33Z" fill="#06F8A7"/>
<path opacity="0.01" fill-rule="evenodd" clip-rule="evenodd" d="M39 37C40.333 37.667 40.333 37.667 39 37Z" fill="#070808"/>
<path fill-rule="evenodd" clip-rule="evenodd" d="M104 33C100.982 32.796 97.982 32.463 95 32C93.538 38.646 92.204 45.312 91 52C93.357 52.163 95.69 51.997 98 51.5C96.876 51.251 95.876 50.751 95 50C95.333 49.667 95.667 49.333 96 49C98.247 49.874 100.58 50.208 103 50C103.17 48.678 102.837 47.511 102 46.5C104.141 46.586 106.474 46.419 109 46C107.589 48.414 105.589 50.081 103 51C101.473 50.927 100.473 51.594 100 53C99.667 53 99.333 53 99 53C95.667 53 92.333 53 89 53C90.333 46.333 91.667 39.667 93 33C93.904 32.291 94.237 31.291 94 30C97.548 30.63 100.881 31.63 104 33Z" fill="#19EAA4"/>
<path opacity="0.398" fill-rule="evenodd" clip-rule="evenodd" d="M40 42C42.448 42.973 45.115 43.306 48 43C45.145 44.303 42.145 44.303 39 43C39.124 42.393 39.457 42.06 40 42Z" fill="#666666"/>
<path opacity="0.447" fill-rule="evenodd" clip-rule="evenodd" d="M63 42C63.543 42.06 63.876 42.393 64 43C60.855 44.303 57.855 44.303 55 43C57.885 43.306 60.552 42.973 63 42Z" fill="#717171"/>
<path opacity="0.386" fill-rule="evenodd" clip-rule="evenodd" d="M231 37C231.968 39.107 232.302 41.441 232 44C229.441 44.302 227.107 43.968 225 43C227 43 229 43 231 43C231 41 231 39 231 37Z" fill="#777777"/>
<path opacity="0.01" fill-rule="evenodd" clip-rule="evenodd" d="M195 46C196.333 46.667 196.333 46.667 195 46Z" fill="#070808"/>
<path fill-rule="evenodd" clip-rule="evenodd" d="M99 9C99 9.333 99 9.667 99 10C91.237 8.183 84.404 9.85 78.5 15C78.607 18.057 77.44 20.391 75 22C80.965 25.1 87.298 26.767 94 27C93.35 28.935 93.017 30.935 93 33C91.667 39.667 90.333 46.333 89 53C92.333 53 95.667 53 99 53C95.264 55.079 91.264 55.412 87 54C87.333 53.333 87.667 52.667 88 52C85 50.167 82 48.333 79 46.5C76.692 44.372 75.026 41.872 74 39C73.826 36.639 73.493 34.306 73 32C73.617 32.111 74.117 32.444 74.5 33C74.922 36.509 75.922 39.843 77.5 43C78.833 44.333 80.167 44.333 81.5 43C81.629 46.618 83.462 48.285 87 48C88.428 44.554 89.261 40.887 89.5 37C91.703 34.831 92.536 32.165 92 29C85.697 27.508 79.364 26.174 73 25C73.801 23.458 74.134 21.792 74 20C76 14.667 79.667 11 85 9C89.821 7.903 94.487 7.903 99 9Z" fill="#1BB781"/>
<path opacity="0.012" fill-rule="evenodd" clip-rule="evenodd" d="M103 51C102.527 52.406 101.527 53.073 100 53C100.473 51.594 101.473 50.927 103 51Z" fill="#12392A"/>
<path opacity="0.01" fill-rule="evenodd" clip-rule="evenodd" d="M205 52C206.333 52.667 206.333 52.667 205 52Z" fill="#070808"/>
<path opacity="0.01" fill-rule="evenodd" clip-rule="evenodd" d="M220 56C221.333 56.667 221.333 56.667 220 56Z" fill="#070808"/>
<path opacity="0.01" fill-rule="evenodd" clip-rule="evenodd" d="M221 63C222.333 63.667 222.333 63.667 221 63Z" fill="#070808"/>
</svg>
