<svg width="239" height="64" viewBox="0 0 239 64" fill="none" xmlns="http://www.w3.org/2000/svg">
<path opacity="0.01" fill-rule="evenodd" clip-rule="evenodd" d="M145.191 0.25C146.524 0.917 146.524 0.917 145.191 0.25V0.25Z" fill="#FAFCFF"/>
<path opacity="0.01" fill-rule="evenodd" clip-rule="evenodd" d="M202.191 0.25C203.524 0.917 203.524 0.917 202.191 0.25V0.25Z" fill="#FAFCFF"/>
<path opacity="0.01" fill-rule="evenodd" clip-rule="evenodd" d="M31.1914 2.25C32.5244 2.917 32.5244 2.917 31.1914 2.25V2.25Z" fill="#FAFCFF"/>
<path opacity="0.7" fill-rule="evenodd" clip-rule="evenodd" d="M110.191 13.25C106.498 11.89 102.832 10.556 99.1914 9.25C94.6784 8.153 90.0124 8.153 85.1914 9.25C88.0474 7.673 91.2134 6.673 94.6914 6.25C100.801 6.775 105.968 9.108 110.191 13.25Z" fill="#145E42"/>
<path opacity="0.999" fill-rule="evenodd" clip-rule="evenodd" d="M167.191 20.25C172.813 16.995 177.647 17.995 181.691 23.25C182.181 24.543 182.348 25.877 182.191 27.25C182.191 32.583 182.191 37.917 182.191 43.25C179.858 43.25 177.524 43.25 175.191 43.25C175.53 37.82 175.03 32.486 173.691 27.25C170.754 24.444 168.254 24.777 166.191 28.25C165.204 33.055 164.87 38.055 165.191 43.25C162.858 43.25 160.524 43.25 158.191 43.25C158.191 32.583 158.191 21.917 158.191 11.25C160.524 11.25 162.858 11.25 165.191 11.25C164.871 14.648 165.204 17.982 166.191 21.25C166.798 21.126 167.131 20.793 167.191 20.25Z" fill="#FAFCFF"/>
<path fill-rule="evenodd" clip-rule="evenodd" d="M137.191 11.2501C145.741 11.1511 151.074 15.1511 153.191 23.2501C150.173 23.4151 147.173 23.2481 144.191 22.7501C140.504 18.3651 136.671 18.1991 132.691 22.2501C128.7 32.1451 131.866 36.6451 142.191 35.7501C145.121 32.6991 148.788 31.5321 153.191 32.2501C152.581 38.3651 149.247 42.1991 143.191 43.7501C130.92 45.6391 123.92 40.4721 122.191 28.2501C122.698 18.4191 127.698 12.7531 137.191 11.2501Z" fill="#FAFCFF"/>
<path opacity="0.388" fill-rule="evenodd" clip-rule="evenodd" d="M219.191 13.25C221.639 12.277 224.306 11.944 227.191 12.25C227.191 14.25 227.191 16.25 227.191 18.25C228.858 18.25 230.524 18.25 232.191 18.25C232.493 20.809 232.159 23.143 231.191 25.25C231.191 23.25 231.191 21.25 231.191 19.25C229.524 19.25 227.858 19.25 226.191 19.25C226.191 17.25 226.191 15.25 226.191 13.25C223.858 13.25 221.524 13.25 219.191 13.25Z" fill="#797979"/>
<path opacity="0.557" fill-rule="evenodd" clip-rule="evenodd" d="M1.19141 12.25C1.19141 22.583 1.19141 32.917 1.19141 43.25C3.52441 43.25 5.85841 43.25 8.19141 43.25C5.74341 44.223 3.07641 44.556 0.191406 44.25C0.191406 33.917 0.191406 23.583 0.191406 13.25C0.191406 12.583 0.524406 12.25 1.19141 12.25Z" fill="#8E8E8E"/>
<path fill-rule="evenodd" clip-rule="evenodd" d="M1.19141 12.25C1.52441 12.25 1.85841 12.25 2.19141 12.25C4.93841 11.937 7.60541 12.27 10.1914 13.25C12.7414 19.743 15.5744 26.076 18.6914 32.25C21.4964 25.664 23.9964 18.997 26.1914 12.25C29.5244 12.25 32.8584 12.25 36.1914 12.25C36.1914 22.917 36.1914 33.583 36.1914 44.25C33.5244 44.25 30.8584 44.25 28.1914 44.25C28.3574 38.906 28.1904 33.573 27.6914 28.25C25.5504 33.506 23.7174 38.84 22.1914 44.25C19.5724 44.518 17.0724 44.185 14.6914 43.25C12.8874 38.17 10.8874 33.17 8.69141 28.25C8.19241 33.239 8.02541 38.239 8.19141 43.25C5.85841 43.25 3.52441 43.25 1.19141 43.25C1.19141 32.917 1.19141 22.583 1.19141 12.25Z" fill="#FAFCFF"/>
<path opacity="0.998" fill-rule="evenodd" clip-rule="evenodd" d="M219.191 13.25C221.524 13.25 223.858 13.25 226.191 13.25C226.191 15.25 226.191 17.25 226.191 19.25C227.858 19.25 229.524 19.25 231.191 19.25C231.191 21.25 231.191 23.25 231.191 25.25C229.858 25.25 228.524 25.25 227.191 25.25C227.026 28.932 227.192 32.598 227.691 36.25C228.702 37.087 229.869 37.42 231.191 37.25C231.191 39.25 231.191 41.25 231.191 43.25C229.191 43.25 227.191 43.25 225.191 43.25C222.788 43.357 220.955 42.357 219.691 40.25C219.192 35.261 219.025 30.261 219.191 25.25C215.218 24.675 214.218 22.508 216.191 18.75C217.139 18.267 218.139 18.101 219.191 18.25C219.191 16.583 219.191 14.917 219.191 13.25Z" fill="#FAFCFF"/>
<path opacity="0.17" fill-rule="evenodd" clip-rule="evenodd" d="M167.191 20.25C167.131 20.793 166.798 21.126 166.191 21.25C165.204 17.982 164.871 14.648 165.191 11.25C162.858 11.25 160.524 11.25 158.191 11.25C158.191 21.917 158.191 32.583 158.191 43.25C160.524 43.25 162.858 43.25 165.191 43.25C164.87 38.055 165.204 33.055 166.191 28.25C166.191 33.583 166.191 38.917 166.191 44.25C163.191 44.25 160.191 44.25 157.191 44.25C157.191 32.917 157.191 21.583 157.191 10.25C160.191 10.25 163.191 10.25 166.191 10.25C165.878 13.792 166.212 17.125 167.191 20.25Z" fill="#4A4A4A"/>
<path fill-rule="evenodd" clip-rule="evenodd" d="M99.1914 10.25C97.6804 15.962 96.0134 21.629 94.1914 27.25C87.4894 27.017 81.1564 25.35 75.1914 22.25C77.6314 20.641 78.7984 18.307 78.6914 15.25C84.5954 10.1 91.4284 8.43304 99.1914 10.25Z" fill="#0CCF8C"/>
<path opacity="0.323" fill-rule="evenodd" clip-rule="evenodd" d="M48.1914 19.25C45.3064 18.944 42.6394 19.277 40.1914 20.25C39.6484 20.19 39.3154 19.857 39.1914 19.25C42.3364 17.947 45.3364 17.947 48.1914 19.25Z" fill="#626262"/>
<path opacity="0.334" fill-rule="evenodd" clip-rule="evenodd" d="M55.1914 19.25C58.0464 17.947 61.0464 17.947 64.1914 19.25C64.0674 19.857 63.7344 20.19 63.1914 20.25C60.7434 19.277 58.0764 18.944 55.1914 19.25Z" fill="#5E5E5E"/>
<path fill-rule="evenodd" clip-rule="evenodd" d="M48.1914 19.25C49.5014 20.898 50.8344 22.564 52.1914 24.25C53.4544 22.721 54.4544 21.055 55.1914 19.25C58.0764 18.944 60.7434 19.277 63.1914 20.25C61.1104 24.18 58.7774 28.014 56.1914 31.75C59.1654 34.878 61.4984 38.378 63.1914 42.25C60.7434 43.223 58.0764 43.556 55.1914 43.25C54.0344 41.612 52.8674 39.946 51.6914 38.25C50.0224 39.596 48.8554 41.263 48.1914 43.25C45.3064 43.556 42.6394 43.223 40.1914 42.25C42.2724 38.32 44.6054 34.486 47.1914 30.75C44.2174 27.622 41.8844 24.122 40.1914 20.25C42.6394 19.277 45.3064 18.944 48.1914 19.25Z" fill="#FAFCFF"/>
<path opacity="0.999" fill-rule="evenodd" clip-rule="evenodd" d="M99.1914 9.25C102.832 10.556 106.498 11.89 110.191 13.25C113.419 15.819 115.419 19.152 116.191 23.25C116.191 27.583 116.191 31.917 116.191 36.25C115.522 39.599 113.855 42.266 111.191 44.25C112.267 41.016 112.934 37.682 113.191 34.25C110.209 33.787 107.209 33.454 104.191 33.25C101.072 31.88 97.7394 30.88 94.1914 30.25C94.4284 31.541 94.0954 32.541 93.1914 33.25C93.2084 31.185 93.5414 29.185 94.1914 27.25C96.0134 21.629 97.6804 15.962 99.1914 10.25C99.1914 9.917 99.1914 9.583 99.1914 9.25Z" fill="#0EA470"/>
<path opacity="0.999" fill-rule="evenodd" clip-rule="evenodd" d="M202.191 19.25C203.884 22.712 204.884 22.712 205.191 19.25C207.524 19.25 209.858 19.25 212.191 19.25C212.191 27.25 212.191 35.25 212.191 43.25C209.858 43.25 207.524 43.25 205.191 43.25C205.346 39.897 204.679 39.564 203.191 42.25C192.971 46.464 187.305 42.964 186.191 31.75C186.475 20.956 191.808 16.789 202.191 19.25ZM198.191 25.25C203.515 26.08 205.349 29.08 203.691 34.25C199.115 38.395 195.948 37.395 194.191 31.25C194.557 28.494 195.891 26.494 198.191 25.25Z" fill="#FAFCFF"/>
<path fill-rule="evenodd" clip-rule="evenodd" d="M73.1914 25.25C79.5554 26.424 85.8884 27.758 92.1914 29.25C92.7274 32.415 91.8944 35.081 89.6914 37.25C89.4524 41.137 88.6194 44.804 87.1914 48.25C83.6534 48.535 81.8204 46.868 81.6914 43.25C80.3584 44.583 79.0244 44.583 77.6914 43.25C76.1134 40.093 75.1134 36.759 74.6914 33.25C74.3084 32.694 73.8084 32.361 73.1914 32.25C73.1914 29.917 73.1914 27.583 73.1914 25.25Z" fill="#07E39A"/>
<path fill-rule="evenodd" clip-rule="evenodd" d="M74.1914 20.25C74.3254 22.042 73.9924 23.708 73.1914 25.25C73.1914 27.583 73.1914 29.917 73.1914 32.25C73.6844 34.556 74.0174 36.889 74.1914 39.25C72.6144 36.394 71.6144 33.228 71.1914 29.75C71.6144 26.272 72.6144 23.106 74.1914 20.25Z" fill="#177D54"/>
<path opacity="0.676" fill-rule="evenodd" clip-rule="evenodd" d="M116.191 23.25C118.564 27.626 118.564 31.959 116.191 36.25C116.191 31.917 116.191 27.583 116.191 23.25Z" fill="#1D4E3D"/>
<path opacity="0.213" fill-rule="evenodd" clip-rule="evenodd" d="M203.191 42.25C204.679 39.564 205.346 39.897 205.191 43.25C207.524 43.25 209.858 43.25 212.191 43.25C212.191 35.25 212.191 27.25 212.191 19.25C209.858 19.25 207.524 19.25 205.191 19.25C204.884 22.712 203.884 22.712 202.191 19.25C202.808 19.361 203.308 19.694 203.691 20.25C206.495 18.406 209.661 17.739 213.191 18.25C213.191 26.917 213.191 35.583 213.191 44.25C209.512 44.69 206.179 44.023 203.191 42.25Z" fill="#4D4D4D"/>
<path opacity="0.196" fill-rule="evenodd" clip-rule="evenodd" d="M182.191 27.25C183.18 32.725 183.513 38.392 183.191 44.25C180.306 44.556 177.639 44.223 175.191 43.25C177.524 43.25 179.858 43.25 182.191 43.25C182.191 37.917 182.191 32.583 182.191 27.25Z" fill="#494949"/>
<path fill-rule="evenodd" clip-rule="evenodd" d="M104.191 33.25C107.209 33.454 110.209 33.787 113.191 34.25C112.934 37.682 112.267 41.016 111.191 44.25C111.191 45.583 110.524 46.25 109.191 46.25C106.665 46.669 104.332 46.836 102.191 46.75C103.028 47.761 103.361 48.928 103.191 50.25C100.771 50.458 98.4384 50.124 96.1914 49.25C95.8584 49.583 95.5244 49.917 95.1914 50.25C96.0674 51.001 97.0674 51.501 98.1914 51.75C95.8814 52.247 93.5484 52.413 91.1914 52.25C92.3954 45.562 93.7294 38.896 95.1914 32.25C98.1734 32.713 101.173 33.046 104.191 33.25Z" fill="#06F8A7"/>
<path opacity="0.01" fill-rule="evenodd" clip-rule="evenodd" d="M39.1914 37.25C40.5244 37.917 40.5244 37.917 39.1914 37.25V37.25Z" fill="#FAFCFF"/>
<path fill-rule="evenodd" clip-rule="evenodd" d="M104.191 33.25C101.173 33.046 98.1734 32.713 95.1914 32.25C93.7294 38.896 92.3954 45.562 91.1914 52.25C93.5484 52.413 95.8814 52.247 98.1914 51.75C97.0674 51.501 96.0674 51.001 95.1914 50.25C95.5244 49.917 95.8584 49.583 96.1914 49.25C98.4384 50.124 100.771 50.458 103.191 50.25C103.361 48.928 103.028 47.761 102.191 46.75C104.332 46.836 106.665 46.669 109.191 46.25C107.78 48.664 105.78 50.331 103.191 51.25C101.664 51.177 100.664 51.844 100.191 53.25C99.8584 53.25 99.5244 53.25 99.1914 53.25C95.8584 53.25 92.5244 53.25 89.1914 53.25C90.5244 46.583 91.8584 39.917 93.1914 33.25C94.0954 32.541 94.4284 31.541 94.1914 30.25C97.7394 30.88 101.072 31.88 104.191 33.25Z" fill="#19EAA4"/>
<path opacity="0.398" fill-rule="evenodd" clip-rule="evenodd" d="M40.1914 42.25C42.6394 43.223 45.3064 43.556 48.1914 43.25C45.3364 44.553 42.3364 44.553 39.1914 43.25C39.3154 42.643 39.6484 42.31 40.1914 42.25Z" fill="#666666"/>
<path opacity="0.447" fill-rule="evenodd" clip-rule="evenodd" d="M63.1914 42.25C63.7344 42.31 64.0674 42.643 64.1914 43.25C61.0464 44.553 58.0464 44.553 55.1914 43.25C58.0764 43.556 60.7434 43.223 63.1914 42.25Z" fill="#717171"/>
<path opacity="0.386" fill-rule="evenodd" clip-rule="evenodd" d="M231.191 37.25C232.159 39.357 232.493 41.691 232.191 44.25C229.632 44.552 227.298 44.218 225.191 43.25C227.191 43.25 229.191 43.25 231.191 43.25C231.191 41.25 231.191 39.25 231.191 37.25Z" fill="#777777"/>
<path opacity="0.01" fill-rule="evenodd" clip-rule="evenodd" d="M195.191 46.25C196.524 46.917 196.524 46.917 195.191 46.25V46.25Z" fill="#FAFCFF"/>
<path fill-rule="evenodd" clip-rule="evenodd" d="M99.1914 9.25C99.1914 9.583 99.1914 9.917 99.1914 10.25C91.4284 8.433 84.5954 10.1 78.6914 15.25C78.7984 18.307 77.6314 20.641 75.1914 22.25C81.1564 25.35 87.4894 27.017 94.1914 27.25C93.5414 29.185 93.2084 31.185 93.1914 33.25C91.8584 39.917 90.5244 46.583 89.1914 53.25C92.5244 53.25 95.8584 53.25 99.1914 53.25C95.4554 55.329 91.4554 55.662 87.1914 54.25C87.5244 53.583 87.8584 52.917 88.1914 52.25C85.1914 50.417 82.1914 48.583 79.1914 46.75C76.8834 44.622 75.2174 42.122 74.1914 39.25C74.0174 36.889 73.6844 34.556 73.1914 32.25C73.8084 32.361 74.3084 32.694 74.6914 33.25C75.1134 36.759 76.1134 40.093 77.6914 43.25C79.0244 44.583 80.3584 44.583 81.6914 43.25C81.8204 46.868 83.6534 48.535 87.1914 48.25C88.6194 44.804 89.4524 41.137 89.6914 37.25C91.8944 35.081 92.7274 32.415 92.1914 29.25C85.8884 27.758 79.5554 26.424 73.1914 25.25C73.9924 23.708 74.3254 22.042 74.1914 20.25C76.1914 14.917 79.8584 11.25 85.1914 9.25C90.0124 8.153 94.6784 8.153 99.1914 9.25Z" fill="#1BB781"/>
<path opacity="0.012" fill-rule="evenodd" clip-rule="evenodd" d="M103.191 51.25C102.718 52.656 101.718 53.323 100.191 53.25C100.664 51.844 101.664 51.177 103.191 51.25Z" fill="#12392A"/>
<path opacity="0.01" fill-rule="evenodd" clip-rule="evenodd" d="M205.191 52.25C206.524 52.917 206.524 52.917 205.191 52.25V52.25Z" fill="#FAFCFF"/>
<path opacity="0.01" fill-rule="evenodd" clip-rule="evenodd" d="M220.191 56.25C221.524 56.917 221.524 56.917 220.191 56.25V56.25Z" fill="#FAFCFF"/>
<path opacity="0.01" fill-rule="evenodd" clip-rule="evenodd" d="M221.191 63.25C222.524 63.917 222.524 63.917 221.191 63.25V63.25Z" fill="#FAFCFF"/>
</svg>
